<svg xmlns="http://www.w3.org/2000/svg" width="400" height="140" fill="none"><path fill="#fff" d="M.2 24h18.4L18 41.8h.1c2.8-10.3 5.8-18.7 20.4-18.7 11.5 0 18.9 5.9 20.2 15.6h.1c2.4-9.7 9-15.6 20.5-15.6 13 0 20.4 8.2 20.4 22.2v38.5H81.3V49.6c0-7-3.6-11.3-9.9-11.3-6.3 0-12.3 5.6-12.3 16.6v28.9H40.7V49.6c0-7-3.6-11.3-9.9-11.3-6.3 0-12.2 5.7-12.2 16.9v28.6H.2V24ZM107.2 54c0-19.4 12.8-30.9 32.5-30.9s32.6 11.5 32.6 30.9-12.9 30.8-32.6 30.8c-19.7 0-32.5-11.4-32.5-30.8Zm46.7 0c0-10.6-5.2-16.9-14.2-16.9s-14.1 6.3-14.1 16.9c0 10.6 5.2 16.7 14.1 16.7 8.9 0 14.2-6.1 14.2-16.7ZM198.5 71.4h-.1c.1 3.5.3 9.5.6 12.4h-18.4V0H199v25c0 2.8-.3 11.2-.4 14.1h.3c2.3-7.9 9.9-16 20.5-16 17.1 0 27.1 11 27.1 29.6 0 20.2-10.2 32.1-27.2 32.1-10.9 0-18.6-5.8-20.8-13.4Zm29.6-18.1c0-10.1-5.1-16.2-13.6-16.2S199 43.3 199 53.6v2.7c0 9.1 5.8 14.4 15.6 14.4s13.5-6.4 13.5-17.4ZM255.1 24h18.4v59.8h-18.4V24ZM283.4 0h18.4v83.8h-18.4V0ZM311.4 0h18.4v83.8h-18.4V0ZM338.2 63.7h16.4c0 5.6 2.8 9.2 13.3 9.2s12.9-2.8 12.9-7.1c0-2.2-1.1-3.9-4.2-4.6-3.1-.7-8-1.2-13.9-1.7-8.6-.7-15.2-2.1-18.9-4.6a14.294 14.294 0 0 1-5.6-11.7c0-13 13.3-20.1 29.8-20.1 19.6 0 28.6 7.5 28.6 21.4h-16.2c-.2-6.3-3.1-9.6-12.1-9.6s-11.9 2.8-11.9 6.9c0 4.1 1 4.5 4.4 5.3 3.4.8 8.3 1.3 14.7 1.9 6.4.6 12.6 1.4 17.1 4a13.506 13.506 0 0 1 6.6 11.8c0 12.6-10.7 20-31.2 20s-29.8-9-29.8-21.1ZM261.7 126.5c0 1.4.1 3.2.2 4.2h-4.5v-27.5h4.5v8.9c0 .8-.1 2.4-.1 3.4.8-2.9 3.5-4.7 7.4-4.7 5.6 0 9 3.7 9 9.8 0 6.1-3.4 10.4-8.9 10.4s-6.8-1.7-7.6-4.5Zm12.1-5.8c0-3.9-2.1-6.2-5.6-6.2-3.5 0-6.3 2.4-6.3 6.4v1c0 3.4 2.4 5.5 6.2 5.5 3.8 0 5.7-2.6 5.7-6.7ZM282 138.5V135c.783.224 1.588.358 2.4.4 2.1 0 3-1.1 4.5-4.7h-1.1l-8.4-19.6h5.1l6.2 15.1h.1l5.5-15.1h4.3l-7.4 20c-2.2 5.9-4.1 7.9-8 7.9a9.488 9.488 0 0 1-3.2-.5ZM319.4 108.5h-8v-3.9h20.9v3.9h-8.1v22.2h-4.8v-22.2ZM331.8 120.9c0-6.2 4-10.1 10.2-10.1 6.2 0 10.3 3.9 10.3 10.1 0 6.2-4 10.1-10.3 10.1-6.3 0-10.2-3.8-10.2-10.1Zm16 0c0-4-2.2-6.4-5.8-6.4-3.6 0-5.8 2.4-5.8 6.4s2.2 6.5 5.8 6.5c3.6 0 5.8-2.5 5.8-6.5ZM356.1 111.1h4.4v5.6c.9-3.5 2.9-5.9 7-5.9s6.5 2.8 6.5 7.7c0 1.2-.1 2.8-.1 3.6h-4.2c.124-.895.191-1.797.2-2.7 0-3.2-1.3-4.8-3.9-4.8-3.4 0-5.5 2.9-5.5 7.5v8.6h-4.4v-19.6ZM377.2 120.9c0-6.2 4-10.1 10.2-10.1 6.2 0 10.2 3.9 10.2 10.1 0 6.2-4 10.1-10.2 10.1-6.2 0-10.2-3.8-10.2-10.1Zm16 0c0-4-2.2-6.4-5.8-6.4-3.6 0-5.8 2.4-5.8 6.4s2.2 6.5 5.8 6.5c3.6 0 5.8-2.5 5.8-6.5Z"/></svg>