<svg xmlns="http://www.w3.org/2000/svg" width="400" height="140" fill="none"><path fill="#fff" d="M.2 24h18.4L18 41.8h.1c2.8-10.3 5.8-18.7 20.4-18.7 11.5 0 18.9 5.9 20.2 15.6h.1c2.4-9.7 9-15.6 20.5-15.6 13 0 20.4 8.2 20.4 22.2v38.5H81.3V49.6c0-7-3.6-11.3-9.9-11.3-6.3 0-12.3 5.6-12.3 16.6v28.9H40.7V49.6c0-7-3.6-11.3-9.9-11.3-6.3 0-12.2 5.7-12.2 16.9v28.6H.2V24Zm107 30c0-19.4 12.8-30.9 32.5-30.9s32.6 11.5 32.6 30.9-12.9 30.8-32.6 30.8c-19.7 0-32.5-11.4-32.5-30.8Zm46.7 0c0-10.6-5.2-16.9-14.2-16.9s-14.1 6.3-14.1 16.9c0 10.6 5.2 16.7 14.1 16.7 8.9 0 14.2-6.1 14.2-16.7Zm44.6 17.4h-.1c.1 3.5.3 9.5.6 12.4h-18.4V0H199v25c0 2.8-.3 11.2-.4 14.1h.3c2.3-7.9 9.9-16 20.5-16 17.1 0 27.1 11 27.1 29.6 0 20.2-10.2 32.1-27.2 32.1-10.9 0-18.6-5.8-20.8-13.4Zm29.6-18.1c0-10.1-5.1-16.2-13.6-16.2S199 43.3 199 53.6v2.7c0 9.1 5.8 14.4 15.6 14.4s13.5-6.4 13.5-17.4Zm27-29.3h18.4v59.8h-18.4V24Zm28.3-24h18.4v83.8h-18.4V0Zm28 0h18.4v83.8h-18.4V0Zm26.8 63.7h16.4c0 5.6 2.8 9.2 13.3 9.2s12.9-2.8 12.9-7.1c0-2.2-1.1-3.9-4.2-4.6-3.1-.7-8-1.2-13.9-1.7-8.6-.7-15.2-2.1-18.9-4.6a14.294 14.294 0 0 1-5.6-11.7c0-13 13.3-20.1 29.8-20.1 19.6 0 28.6 7.5 28.6 21.4h-16.2c-.2-6.3-3.1-9.6-12.1-9.6s-11.9 2.8-11.9 6.9c0 4.1 1 4.5 4.4 5.3 3.4.8 8.3 1.3 14.7 1.9 6.4.6 12.6 1.4 17.1 4a13.506 13.506 0 0 1 6.6 11.8c0 12.6-10.7 20-31.2 20s-29.8-9-29.8-21.1Zm"/></svg>
