<svg xmlns="http://www.w3.org/2000/svg" viewBox="2.862 0 396.339 84.8"><path fill="#fff" d="M2.862 24h18.277l-.596 17.8h.1c2.781-10.3 5.761-18.7 20.263-18.7 11.424 0 18.774 5.9 20.066 15.6h.099c2.384-9.7 8.94-15.6 20.363-15.6 12.913 0 20.264 8.2 20.264 22.2v38.5H83.421V49.6c0-7-3.576-11.3-9.834-11.3s-12.218 5.6-12.218 16.6v28.9H43.092V49.6c0-7-3.576-11.3-9.834-11.3S21.139 44 21.139 55.2v28.6H2.862zm106.286 30c0-19.4 12.715-30.9 32.283-30.9s32.383 11.5 32.383 30.9S161 84.8 141.431 84.8c-19.568 0-32.283-11.4-32.283-30.8m46.389 0c0-10.6-5.166-16.9-14.106-16.9s-14.006 6.3-14.006 16.9 5.166 16.7 14.006 16.7 14.106-6.1 14.106-16.7m44.302 17.4h-.099c.099 3.5.298 9.5.596 12.4h-18.278V0h18.278v25c0 2.8-.298 11.2-.398 14.1h.298c2.285-7.9 9.834-16 20.364-16 16.985 0 26.919 11 26.919 29.6 0 20.2-10.132 32.1-27.019 32.1-10.827 0-18.476-5.8-20.661-13.4m29.403-18.1c0-10.1-5.066-16.2-13.51-16.2s-15.396 6.2-15.396 16.5v2.7c0 9.1 5.761 14.4 15.496 14.4s13.41-6.4 13.41-17.4M256.061 24h18.278v59.8h-18.278zm28.112-24h18.277v83.8h-18.277zm27.813 0h18.277v83.8h-18.277zm26.621 63.7h16.291c0 5.6 2.781 9.2 13.211 9.2s12.814-2.8 12.814-7.1c0-2.2-1.093-3.9-4.172-4.6-3.08-.7-7.947-1.2-13.807-1.7-8.543-.7-15.099-2.1-18.774-4.6a14.33 14.33 0 0 1-5.563-11.7c0-13 13.211-20.1 29.601-20.1 19.469 0 28.409 7.5 28.409 21.4h-16.092c-.198-6.3-3.079-9.6-12.019-9.6s-11.82 2.8-11.82 6.9.993 4.5 4.37 5.3 8.245 1.3 14.602 1.9 12.516 1.4 16.986 4a13.53 13.53 0 0 1 6.556 11.8c0 12.6-10.629 20-30.992 20s-29.601-9-29.601-21.1"/></svg>