<svg xmlns="http://www.w3.org/2000/svg" width="24" height="24" stroke-opacity=".7" aria-hidden="true" class="MuiSvgIcon-root sc-aXZVg jkVGsB" shape-rendering="geometricPrecision" stroke="#fff" stroke-opacity="0.7"><g fill="none"><circle cx="12" cy="12" r="3.1" data-name="Elipse 54-3"/><path d="M19.6 15.1A1.9 1.9 0 0 0 20 17h.1a2.1 2.1 0 0 1-3 3 1.8 1.8 0 0 0-2.5 0 3.1 3.1 0 0 0-.5 1.2v.2a2.1 2.1 0 1 1-4.1 0 1.7 1.7 0 0 0-1.1-1.6A1.9 1.9 0 0 0 7 20a2.2 2.2 0 0 1-3 0 2.2 2.2 0 0 1 0-3h.1a1.8 1.8 0 0 0 0-2.5 3.1 3.1 0 0 0-1.2-.5h-.2a2.1 2.1 0 1 1 0-4.1h.1a1.7 1.7 0 0 0 1.6-1A1.9 1.9 0 0 0 4 7h-.1a2.2 2.2 0 0 1 0-3 2.2 2.2 0 0 1 3 0 1.7 1.7 0 0 0 1.9.3h.1a1.5 1.5 0 0 0 1-1.5v-.1A2.2 2.2 0 0 1 12 .6a2.2 2.2 0 0 1 2.1 2.1 1.8 1.8 0 0 0 1.7 1.7A1.8 1.8 0 0 0 17 4a2.2 2.2 0 0 1 3 0 2.2 2.2 0 0 1 0 3h-.1a1.7 1.7 0 0 0-.3 1.9 1.5 1.5 0 0 0 1.5 1h.2a2.2 2.2 0 0 1 2.1 2.1 2.2 2.2 0 0 1-2.1 2.1h-.1a1.8 1.8 0 0 0-1.6 1Z"/></g></svg>
