<svg xmlns="http://www.w3.org/2000/svg" width="24" height="24" fill-opacity=".7" stroke="#FFF" stroke-opacity=".7" aria-hidden="true" class="MuiSvgIcon-root sc-aXZVg jkVGsB" shape-rendering="geometricPrecision"><path stroke-linecap="round" stroke-linejoin="round" d="M8.4 7h11.7M8.4 17h11.7M8.4 12H12M3 7a1.3 1.3 0 0 0 1.3 1.4A1.4 1.4 0 0 0 5.7 7a1.3 1.3 0 0 0-1.4-1.3A1.3 1.3 0 0 0 3 7Zm0 10a1.3 1.3 0 0 0 1.3 1.4A1.4 1.4 0 0 0 5.7 17a1.3 1.3 0 0 0-1.4-1.3A1.3 1.3 0 0 0 3 17Zm0-5a1.3 1.3 0 0 0 1.3 1.4A1.4 1.4 0 0 0 5.7 12a1.3 1.3 0 0 0-1.4-1.3A1.3 1.3 0 0 0 3 12Z"/></svg>
